<?xml version="1.0" encoding="UTF-8" standalone="no"?>
<svg
   version="1.1"
   viewBox="-5 -10 110 110"
   id="svg26"
   sodipodi:docname="noun-html.svg"
   width="110"
   height="110"
   inkscape:version="1.2.2 (b0a8486541, 2022-12-01)"
   xmlns:inkscape="http://www.inkscape.org/namespaces/inkscape"
   xmlns:sodipodi="http://sodipodi.sourceforge.net/DTD/sodipodi-0.dtd"
   xmlns:xlink="http://www.w3.org/1999/xlink"
   xmlns="http://www.w3.org/2000/svg"
   xmlns:svg="http://www.w3.org/2000/svg">
  <defs
     id="defs30">
    <linearGradient
       inkscape:collect="always"
       id="linearGradient926">
      <stop
         style="stop-color:#ff25ea;stop-opacity:1;"
         offset="0"
         id="stop922" />
      <stop
         style="stop-color:#2751ff;stop-opacity:1;"
         offset="1"
         id="stop924" />
    </linearGradient>
    <linearGradient
       inkscape:collect="always"
       xlink:href="#linearGradient926"
       id="linearGradient928"
       x1="0.52587748"
       y1="-0.40421692"
       x2="98.717003"
       y2="93.655678"
       gradientUnits="userSpaceOnUse" />
  </defs>
  <sodipodi:namedview
     id="namedview28"
     pagecolor="#ffffff"
     bordercolor="#999999"
     borderopacity="1"
     inkscape:showpageshadow="0"
     inkscape:pageopacity="0"
     inkscape:pagecheckerboard="0"
     inkscape:deskcolor="#d1d1d1"
     showgrid="false"
     inkscape:zoom="4.9445096"
     inkscape:cx="40.954517"
     inkscape:cy="60.673358"
     inkscape:window-width="1920"
     inkscape:window-height="1007"
     inkscape:window-x="0"
     inkscape:window-y="0"
     inkscape:window-maximized="1"
     inkscape:current-layer="svg26" />
  <g
     id="g860"
     style="fill-opacity:1;fill:url(#linearGradient928)">
    <path
       d="m 69.592178,86.973336 h 7.7617 c 12.223,0 22.133,-9.9102 22.133,-22.133 v -45.426 c 0,-12.2229996 -9.9102,-22.1329996 -22.133,-22.1329996 h -54.695 c -12.223,0 -22.13300054,9.9102 -22.13300054,22.1329996 v 45.426 c 0,12.223 9.91020054,22.133 22.13300054,22.133 h 7.6172 c 0.86328,0 1.5625,-0.69922 1.5625,-1.5625 0,-0.86328 -0.69922,-1.5625 -1.5625,-1.5625 h -7.6172 c -10.496,0 -19.0080005,-8.5078 -19.0080005,-19.008 v -45.426 c 0,-10.4959996 8.5117005,-19.00799959 19.0080005,-19.00799959 h 54.695 c 10.496,0 19.008,8.51169999 19.008,19.00799959 v 45.426 c 0,10.496 -8.5117,19.008 -19.008,19.008 h -7.7617 c -0.86328,0 -1.5625,0.69922 -1.5625,1.5625 0,0.86328 0.69922,1.5625 1.5625,1.5625 z"
       fill-rule="evenodd"
       id="path2"
       style="fill-opacity:1.0;fill:url(#linearGradient928)" />
    <path
       d="m 14.572178,17.024336 h 82.469 c 0.86328,0 1.5625,-0.69922 1.5625,-1.5625 0,-0.86328 -0.69922,-1.5625 -1.5625,-1.5625 h -82.469 c -0.86328,0 -1.5625,0.69922 -1.5625,1.5625 0,0.86328 0.69922,1.5625 1.5625,1.5625 z m -11.6020005,0 h 5.918 c 0.8632801,0 1.5625005,-0.69922 1.5625005,-1.5625 0,-0.86328 -0.6992204,-1.5625 -1.5625005,-1.5625 h -5.918 c -0.86328,0 -1.5625,0.69922 -1.5625,1.5625 0,0.86328 0.69922,1.5625 1.5625,1.5625 z"
       fill-rule="evenodd"
       id="path4"
       style="fill-opacity:1.0;fill:url(#linearGradient928)" />
    <path
       d="m 65.643178,2.9810364 c -2.6055,0 -4.7227,2.1172 -4.7227,4.7227 0,2.6054996 2.1172,4.7226996 4.7227,4.7226996 2.6055,0 4.7227,-2.1172 4.7227,-4.7226996 0,-2.6055 -2.1133,-4.7227 -4.7227,-4.7227 z m 0,3.125 c 0.88281,0 1.5977,0.71484 1.5977,1.5977 0,0.87891 -0.71484,1.5977 -1.5977,1.5977 -0.87891,0 -1.5977,-0.71484 -1.5977,-1.5977 0,-0.88281 0.71484,-1.5977 1.5977,-1.5977 z"
       fill-rule="evenodd"
       id="path6"
       style="fill-opacity:1.0;fill:url(#linearGradient928)" />
    <path
       d="m 78.904178,2.9810364 c -2.6055,0 -4.7227,2.1172 -4.7227,4.7227 0,2.6054996 2.1133,4.7226996 4.7227,4.7226996 2.6055,0 4.7227,-2.1172 4.7227,-4.7226996 0,-2.6055 -2.1172,-4.7227 -4.7227,-4.7227 z m 0,3.125 c 0.87891,0 1.5977,0.71484 1.5977,1.5977 0,0.87891 -0.71484,1.5977 -1.5977,1.5977 -0.88281,0 -1.5977,-0.71484 -1.5977,-1.5977 0,-0.88281 0.71484,-1.5977 1.5977,-1.5977 z"
       fill-rule="evenodd"
       id="path8"
       style="fill-opacity:1.0;fill:url(#linearGradient928)" />
    <path
       d="m 55.537178,31.172336 c -0.09766,-0.69922 -0.64844,-1.2461 -1.3477,-1.3359 -2.7773,-0.35938 -5.5938,-0.35938 -8.3711,0 -0.69922,0.08984 -1.25,0.63672 -1.3477,1.3359 l -0.78125,5.668 c -1.7461,0.4375 -3.4414,1.0547 -5.0625,1.8398 l -4.2422,-3.8398 c -0.52344,-0.47266 -1.2969,-0.53516 -1.8906,-0.15625 -2.3594,1.5078 -4.5156,3.3203 -6.4141,5.3828 -0.47656,0.51953 -0.54688,1.293 -0.17188,1.8867 l 3.043,4.8438 c -1.0547,1.457 -1.9609,3.0195 -2.6914,4.6641 l -5.7188,-0.21484 c -0.70312,-0.02734 -1.3398,0.42188 -1.5508,1.0938 -0.83984,2.6758 -1.3281,5.4453 -1.4531,8.2422 -0.03125,0.70312 0.41016,1.3438 1.082,1.5586 l 5.4453,1.7539 c 0.12891,1.7969 0.44141,3.5742 0.93359,5.3047 l -4.5195,3.5117 c -0.55469,0.43359 -0.75391,1.1836 -0.48438,1.8359 1.0781,2.5859 2.4844,5.0234 4.1836,7.25 0.42969,0.55859 1.1797,0.76172 1.832,0.49609 l 5.3008,-2.1562 c 1.2539,1.293 2.6367,2.4531 4.1289,3.4609 l -1.2031,5.5938 c -0.14844,0.6875 0.18359,1.3906 0.80859,1.7148 2.4883,1.2891 5.1328,2.2539 7.8672,2.8633 0.6875,0.15234 1.3945,-0.17188 1.7227,-0.79297 l 2.6719,-5.0586 c 1.7891,0.1875 3.5977,0.1875 5.3867,0 l 2.6719,5.0586 c 0.32812,0.62109 1.0352,0.94922 1.7227,0.79297 2.7344,-0.61328 5.3789,-1.5742 7.8672,-2.8633 0.625,-0.32422 0.95703,-1.0273 0.80859,-1.7148 l -1.2031,-5.5938 c 1.4922,-1.0078 2.875,-2.168 4.1289,-3.4609 l 5.3008,2.1562 c 0.65234,0.26562 1.4023,0.0625 1.832,-0.49609 1.7031,-2.2266 3.1094,-4.6641 4.1836,-7.25 0.26953,-0.64844 0.07422,-1.4023 -0.48438,-1.8359 l -4.5195,-3.5117 c 0.49219,-1.7305 0.80859,-3.5078 0.93359,-5.3047 l 5.4453,-1.7539 c 0.67188,-0.21484 1.1133,-0.85547 1.082,-1.5586 -0.12891,-2.8008 -0.61719,-5.5703 -1.4531,-8.2422 -0.21094,-0.67187 -0.84375,-1.1211 -1.5508,-1.0938 l -5.7188,0.21484 c -0.73438,-1.6445 -1.6367,-3.207 -2.6914,-4.6641 0,0 3.043,-4.8438 3.043,-4.8438 0.375,-0.59766 0.30469,-1.3711 -0.17188,-1.8867 -1.8945,-2.0625 -4.0508,-3.8711 -6.4141,-5.3828 -0.59375,-0.37891 -1.3672,-0.31641 -1.8906,0.15625 l -4.2422,3.8398 c -1.6172,-0.78906 -3.3164,-1.4062 -5.0625,-1.8398 l -0.78125,-5.668 z m -2.9297,1.6328 0.76172,5.5312 c 0.08984,0.65625 0.58594,1.1836 1.2344,1.3164 2.1953,0.44922 4.3086,1.2227 6.2812,2.2852 0.58203,0.31641 1.3008,0.22656 1.793,-0.21484 l 4.1406,-3.7461 c 1.4258,0.99609 2.7617,2.1133 3.9883,3.3477 0,0 -2.9727,4.7266 -2.9727,4.7266 -0.35156,0.55859 -0.3125,1.2812 0.09766,1.8008 1.3906,1.7539 2.5156,3.707 3.3398,5.7891 0.24219,0.61719 0.84766,1.0117 1.5117,0.98438 l 5.5781,-0.20703 c 0.45312,1.6797 0.75391,3.3945 0.90234,5.1289 l -5.3164,1.7109 c -0.62891,0.20312 -1.0664,0.78125 -1.082,1.4453 -0.0625,2.2383 -0.45312,4.457 -1.1602,6.582 -0.20703,0.62891 0,1.3203 0.52344,1.7266 l 4.4102,3.4258 c -0.73047,1.5781 -1.6016,3.0859 -2.6016,4.5078 l -5.1719,-2.1055 c -0.61328,-0.25 -1.3164,-0.08594 -1.7578,0.41016 -1.4883,1.6758 -3.2109,3.1211 -5.1211,4.2969 -0.56641,0.34766 -0.84766,1.0117 -0.71094,1.6602 l 1.1758,5.4609 c -1.5742,0.73828 -3.2109,1.332 -4.8945,1.7812 l -2.6094,-4.9375 c -0.30859,-0.58594 -0.95703,-0.91406 -1.6094,-0.81641 -2.2148,0.32812 -4.4688,0.32812 -6.6836,0 -0.65625,-0.09766 -1.3008,0.23047 -1.6094,0.81641 l -2.6094,4.9375 c -1.6797,-0.44922 -3.3164,-1.043 -4.8945,-1.7812 l 1.1758,-5.4609 c 0.13672,-0.64844 -0.14453,-1.3125 -0.71094,-1.6602 -1.9062,-1.1758 -3.6328,-2.6211 -5.1211,-4.2969 -0.44141,-0.49609 -1.1445,-0.66016 -1.7578,-0.41016 l -5.1719,2.1055 c -1,-1.4219 -1.8711,-2.9336 -2.6016,-4.5078 l 4.4102,-3.4258 c 0.52344,-0.40625 0.73047,-1.0977 0.52344,-1.7266 -0.70703,-2.125 -1.0977,-4.3438 -1.1602,-6.582 -0.01953,-0.66406 -0.45312,-1.2422 -1.082,-1.4453 l -5.3164,-1.7109 c 0.14844,-1.7305 0.44922,-3.4492 0.90234,-5.1289 l 5.5781,0.20703 c 0.66406,0.02344 1.2695,-0.37109 1.5117,-0.98438 0.82422,-2.082 1.9492,-4.0352 3.3398,-5.7891 0.41016,-0.51953 0.44922,-1.2422 0.09766,-1.8008 l -2.9727,-4.7266 c 1.2266,-1.2305 2.5625,-2.3516 3.9883,-3.3477 l 4.1406,3.7461 c 0.49219,0.44531 1.2109,0.53125 1.793,0.21484 1.9727,-1.0664 4.0859,-1.8359 6.2812,-2.2852 0.64844,-0.13281 1.1445,-0.66016 1.2344,-1.3164 l 0.76172,-5.5312 c 1.7305,-0.15234 3.4727,-0.15234 5.207,0 z"
       fill-rule="evenodd"
       id="path10"
       style="fill-opacity:1.0;fill:url(#linearGradient928)" />
    <path
       d="m 42.233178,66.262336 -5.4727,-4.5703 5.4727,-4.5703 c 0.66406,-0.55469 0.75,-1.5391 0.19922,-2.1992 -0.55469,-0.66406 -1.5391,-0.75 -2.1992,-0.19922 l -6.9062,5.7734 c -0.35547,0.29688 -0.5625,0.73438 -0.5625,1.1992 0,0.46094 0.20703,0.90234 0.5625,1.1992 l 6.9062,5.7695 c 0.66016,0.55469 1.6484,0.46484 2.1992,-0.19531 0.55078,-0.66016 0.46484,-1.6484 -0.19922,-2.1992 z"
       fill-rule="evenodd"
       id="path12"
       style="fill-opacity:1.0;fill:url(#linearGradient928)" />
    <path
       d="m 59.783178,68.660336 6.9062,-5.7695 c 0.35547,-0.29688 0.5625,-0.73828 0.5625,-1.1992 0,-0.46484 -0.20703,-0.90234 -0.5625,-1.1992 l -6.9062,-5.7734 c -0.66016,-0.55078 -1.6484,-0.46484 -2.1992,0.19922 -0.55078,0.66016 -0.46484,1.6484 0.19922,2.1992 l 5.4727,4.5703 -5.4727,4.5703 c -0.66406,0.55469 -0.75,1.5391 -0.19922,2.1992 0.55469,0.66016 1.5391,0.75 2.1992,0.19531 z"
       fill-rule="evenodd"
       id="path14"
       style="fill-opacity:1.0;fill:url(#linearGradient928)" />
    <path
       d="m 47.393178,71.145336 7.6328,-17.672 c 0.34375,-0.79297 -0.02344,-1.7109 -0.81641,-2.0547 -0.792973,-0.3438 -1.7109,0.02344 -2.0547,0.81641 l -7.6328,17.672 c -0.34375,0.79297 0.02344,1.7109 0.81641,2.0547 0.79297,0.33984 1.7109,-0.02344 2.0547,-0.81641 z"
       fill-rule="evenodd"
       id="path16"
       style="fill-opacity:1.0;fill:url(#linearGradient928)" />
    <path
       d="m 76.194178,29.375336 h 14.164 c 0.86328,0 1.5625,-0.69922 1.5625,-1.5625 0,-0.86328 -0.69922,-1.5625 -1.5625,-1.5625 h -14.164 c -0.86328,0 -1.5625,0.69922 -1.5625,1.5625 0,0.86328 0.69922,1.5625 1.5625,1.5625 z"
       fill-rule="evenodd"
       id="path18"
       style="fill-opacity:1.0;fill:url(#linearGradient928)" />
    <path
       d="m 80.908178,34.840336 h 9.4492 c 0.86328,0 1.5625,-0.69922 1.5625,-1.5625 0,-0.86328 -0.69922,-1.5625 -1.5625,-1.5625 h -9.4492 c -0.86328,0 -1.5625,0.69922 -1.5625,1.5625 0,0.86328 0.69922,1.5625 1.5625,1.5625 z"
       fill-rule="evenodd"
       id="path20"
       style="fill-opacity:1.0;fill:url(#linearGradient928)" />
  </g>
</svg>
