<?xml version="1.0" encoding="UTF-8" standalone="no"?>
<svg
   version="1.1"
   viewBox="-5 -10 110 110"
   id="svg8"
   sodipodi:docname="noun-seo.svg"
   width="110"
   height="110"
   inkscape:version="1.2.2 (b0a8486541, 2022-12-01)"
   xmlns:inkscape="http://www.inkscape.org/namespaces/inkscape"
   xmlns:sodipodi="http://sodipodi.sourceforge.net/DTD/sodipodi-0.dtd"
   xmlns:xlink="http://www.w3.org/1999/xlink"
   xmlns="http://www.w3.org/2000/svg"
   xmlns:svg="http://www.w3.org/2000/svg">
  <defs
     id="defs12">
    <linearGradient
       inkscape:collect="always"
       id="linearGradient905">
      <stop
         style="stop-color:#ff25ea;stop-opacity:1;"
         offset="0"
         id="stop901" />
      <stop
         style="stop-color:#2751ff;stop-opacity:1;"
         offset="1"
         id="stop903" />
    </linearGradient>
    <linearGradient
       inkscape:collect="always"
       xlink:href="#linearGradient905"
       id="linearGradient907"
       x1="1.3303009"
       y1="5.8485126"
       x2="98.664047"
       y2="84.151489"
       gradientUnits="userSpaceOnUse" />
  </defs>
  <sodipodi:namedview
     id="namedview10"
     pagecolor="#ffffff"
     bordercolor="#999999"
     borderopacity="1"
     inkscape:showpageshadow="0"
     inkscape:pageopacity="0"
     inkscape:pagecheckerboard="0"
     inkscape:deskcolor="#d1d1d1"
     showgrid="false"
     inkscape:zoom="4.9445096"
     inkscape:cx="35.29167"
     inkscape:cy="60.268869"
     inkscape:window-width="1920"
     inkscape:window-height="1007"
     inkscape:window-x="0"
     inkscape:window-y="0"
     inkscape:window-maximized="1"
     inkscape:current-layer="svg8" />
  <path
     d="m 28.062,55.956007 c 0.41797,-0.43359 0.75391,-0.77734 0.98828,-1.0156 v 0.0039 c 1.2891,-1.2891 1.2891,-3.3789 0,-4.668 l -0.07422,-0.07031 2.8008,-2.7969 c 6.2969,3.6719 13.984,4.0352 20.598,0.97656 6.6133,-3.0625 11.316,-9.1602 12.59,-16.336 1.2773,-7.1719 -1.0312,-14.52 -6.1875,-19.672 -5.1523,-5.1522997 -12.496,-7.4608997 -19.672,-6.1835997 -7.1719,1.2734 -13.27,5.9765997 -16.332,12.5859997 -3.0586,6.6133 -2.6953,14.305 0.97656,20.602 l -2.7969,2.8008 -0.07422,-0.07422 c -1.2891,-1.2891 -3.3789,-1.2891 -4.668,0 -0.23438,0.23438 -0.58203,0.57031 -1.0156,0.98828 -6.832,6.6211 -13.828,13.992 -13.863,18.477 -0.03125,0.94922 0.32422,1.8672 0.98828,2.5469 l 4.7227,4.7227 c 0.66797,0.65234 1.5742,1.0078 2.5078,0.98438 h 0.035157 c 4.4805,-0.03516 11.859,-7.0312 18.477,-13.871 z m 1.1328,-41.629 c 3.6641,-3.6641 8.6328,-5.7226997 13.816,-5.7226997 5.1836,0 10.152,2.0585997 13.816,5.7226997 3.6641,3.668 5.7227,8.6367 5.7227,13.82 0,5.1797 -2.0586,10.152 -5.7227,13.816 -3.6641,3.6641 -8.6328,5.7227 -13.816,5.7227 -5.1836,0 -10.152,-2.0586 -13.816,-5.7227 -3.6797,-3.6562 -5.75,-8.6289 -5.75,-13.816 0,-5.1871 2.0703,-10.164 5.75,-13.82 z m -3.8789,27.387 c 1.1914,1.5508 2.5781,2.9375 4.1289,4.1289 l -2.4141,2.4141 -4.125,-4.1289 z m -8.1953,3.3633 c 0.44531,-0.42969 0.80469,-0.77734 1.0469,-1.0195 h -0.0039 c 0.21484,-0.20703 0.55078,-0.20703 0.76172,0 l 8.1719,8.1719 h 0.0039 c 0.20703,0.21094 0.20703,0.55078 0,0.76172 -0.24219,0.24219 -0.58984,0.60156 -1.0195,1.0469 -0.78516,0.80859 -1.875,1.9336 -3.1367,3.1875 l -7.8047,-1.5547 -1.3906,-7.2695 c 1.3242,-1.3438 2.5195,-2.5 3.3672,-3.3242 z m -7.5586,21.992 c -0.21094,0.02734 -0.41797,-0.03906 -0.57422,-0.17969 l -4.7227,-4.7188 c -0.14062,-0.15625 -0.20703,-0.36719 -0.17578,-0.57422 0.00781,-0.89844 0.66797,-3.1562 5.0273,-8.2148 0.74219,-0.86328 1.5195,-1.7188 2.293,-2.5469 l 1.1953,6.2656 v -0.0039 c 0.10547,0.55078 0.53516,0.98438 1.0859,1.0938 l 6.8398,1.3672 c -0.89062,0.83594 -1.8203,1.6836 -2.7539,2.4883 -5.0586,4.3555 -7.3203,5.0156 -8.2148,5.0234 z m 33.449,-23.461 c 4.1016,0 8.0352,-1.6289 10.938,-4.5273 2.8984,-2.8984 4.5312,-6.832 4.5312,-10.934 0,-4.1016 -1.6289,-8.0352 -4.5273,-10.934 -2.8984,-2.9023 -6.832,-4.5312 -10.934,-4.5312 -4.1016,0 -8.0352,1.6289 -10.934,4.5273 -2.9023,2.9023 -4.5312,6.8359 -4.5312,10.938 0.0039,4.0977 1.6367,8.0273 4.5312,10.926 2.8984,2.8984 6.8281,4.5273 10.926,4.5352 z m 0,-28.164 c 5.1367,0 9.7695,3.0938 11.738,7.8398 1.9648,4.7461 0.87891,10.211 -2.7539,13.844 -3.6328,3.6328 -9.0977,4.7227 -13.844,2.7539 -4.75,-1.9648 -7.8438,-6.5977 -7.8438,-11.734 0.01172,-7.0117 5.6914,-12.691 12.703,-12.699 z m 55.52,25.777 -6.5312,-22.648 c -0.125,-0.43359 -0.45703,-0.78125 -0.88672,-0.92578 -0.42969,-0.14453 -0.90234,-0.06641 -1.2656,0.20703 l -19.648,14.742 c -0.96875,0.73047 -1.4727,1.9219 -1.3164,3.125 0.1563,1.2031 0.94922,2.2305 2.0703,2.6875 l 2.7188,1.1055 c -2.625,7.5039 -6.3281,14.59 -11,21.027 v -1.0508 0.0039 c 0,-0.42969 -0.19922,-0.83594 -0.53906,-1.0938 l -7.3828,-5.668 c -0.49609,-0.37891 -1.1836,-0.37891 -1.6797,0 l -7.3867,5.668 c -0.33984,0.25781 -0.53906,0.66406 -0.53906,1.0938 v 16.008 c -2.8516,1.3516 -5.8594,2.3438 -8.9531,2.9492 v -3.6367 c 0,-0.42578 -0.19922,-0.83203 -0.53906,-1.0938 l -7.3867,-5.668 v 0.0039 c -0.49219,-0.38281 -1.1836,-0.38281 -1.6797,0 l -7.3828,5.668 v -0.0039 c -0.33984,0.26172 -0.53906,0.66797 -0.53906,1.0938 v 7.9531 c 0,0.76172 0.61719,1.3789 1.3789,1.3789 h 14.77 c 0.33594,0 0.66016,-0.12109 0.91016,-0.34375 0.96484,0.05859 1.9219,0.08984 2.8789,0.08984 v 0.0039 c 2.2422,0 4.4805,-0.16797 6.6953,-0.50391 0.23438,0.46094 0.71094,0.75391 1.2305,0.75391 h 14.77 c 0.76172,0 1.3789,-0.61719 1.3789,-1.3789 v -5.875 c 0.51562,-0.3125 1.0273,-0.64062 1.5352,-0.97656 2.582,-1.7148 5.0352,-3.6172 7.332,-5.6953 l 0.08594,12.559 c 0.0039,0.75781 0.62109,1.3711 1.3789,1.3711 h 14.77 c 0.36719,0 0.71875,-0.14453 0.97656,-0.40234 0.25781,-0.26172 0.40234,-0.60938 0.40234,-0.97656 v -34.574 c 0.74219,-1.2344 1.4766,-2.5 2.207,-3.793 l 2.8906,0.94141 v 0.0039 c 1.1836,0.38672 2.4844,0.08594 3.3789,-0.78125 0.89844,-0.86328 1.2422,-2.1562 0.89844,-3.3516 z m -50.625,18.953 6.0039,-4.6055 6.0078,4.6055 v 3.8008 c -3.4102,4.0156 -7.4688,7.4219 -12.012,10.086 z m -26.484,15.324 6.0078,-4.6055 6,4.6055 v 3.3984 c -2.8164,0.34375 -5.6641,0.40625 -8.4922,0.1875 -0.56641,-0.04297 -1.0977,0.26562 -1.3438,0.77344 -0.24609,0.50781 -0.16016,1.1133 0.22266,1.5312 h -2.3945 z m 38.496,5.8906 -6.625,-0.0039 c 2.2773,-0.80469 4.4922,-1.7773 6.625,-2.918 z m 26.48,0 -12.02,-0.0039 -0.09375,-13.762 c 4.5352,-4.5938 8.5938,-9.6406 12.109,-15.059 z m 9.3203,-38.805 0.0039,-0.0039 c -0.16016,0.16797 -0.39844,0.22266 -0.61328,0.14453 l -3.9727,-1.2969 c -0.62891,-0.20703 -1.3164,0.0625 -1.6328,0.64453 -0.90234,1.6406 -1.8594,3.293 -2.8594,4.9453 h -0.0039 c -0.02734,0.04297 -0.05469,0.08984 -0.08203,0.13281 -10.656,17.504 -26.949,34.73 -49.57,33.938 7.9688,-1.7305 15.289,-5.6602 21.129,-11.348 9.957,-9.3594 15.609,-21.789 18.594,-30.57 0.23437,-0.69141 -0.10938,-1.4453 -0.78516,-1.7227 l -3.9336,-1.5977 v 0.0039 c -0.20313,-0.08203 -0.34375,-0.26953 -0.375,-0.48437 -0.02734,-0.21875 0.0625,-0.43359 0.23828,-0.56641 l 18.043,-13.543 5.9922,20.723 c 0.07031,0.21484 0.0039,0.45312 -0.16797,0.60156 z"
     id="path2"
     style="fill-opacity:1;fill:url(#linearGradient907)" />
</svg>
