<?xml version="1.0" encoding="UTF-8" standalone="no"?>
<svg
   version="1.1"
   viewBox="-5 -10 110 110"
   id="svg26"
   sodipodi:docname="noun-responsive.svg"
   width="110"
   height="110"
   inkscape:version="1.2.2 (b0a8486541, 2022-12-01)"
   xmlns:inkscape="http://www.inkscape.org/namespaces/inkscape"
   xmlns:sodipodi="http://sodipodi.sourceforge.net/DTD/sodipodi-0.dtd"
   xmlns:xlink="http://www.w3.org/1999/xlink"
   xmlns="http://www.w3.org/2000/svg"
   xmlns:svg="http://www.w3.org/2000/svg">
  <defs
     id="defs30">
    <linearGradient
       inkscape:collect="always"
       id="linearGradient7432">
      <stop
         style="stop-color:#ff25ea;stop-opacity:1;"
         offset="0"
         id="stop7428" />
      <stop
         style="stop-color:#2751ff;stop-opacity:1;"
         offset="1"
         id="stop7430" />
    </linearGradient>
    <linearGradient
       inkscape:collect="always"
       xlink:href="#linearGradient7432"
       id="linearGradient7434"
       x1="4.1636"
       y1="0.44927993"
       x2="95.836304"
       y2="90.612015"
       gradientUnits="userSpaceOnUse" />
  </defs>
  <sodipodi:namedview
     id="namedview28"
     pagecolor="#ffffff"
     bordercolor="#999999"
     borderopacity="1"
     inkscape:showpageshadow="0"
     inkscape:pageopacity="0"
     inkscape:pagecheckerboard="0"
     inkscape:deskcolor="#d1d1d1"
     showgrid="false"
     inkscape:zoom="4.9445096"
     inkscape:cx="23.156998"
     inkscape:cy="56.830712"
     inkscape:window-width="1920"
     inkscape:window-height="1007"
     inkscape:window-x="0"
     inkscape:window-y="0"
     inkscape:window-maximized="1"
     inkscape:current-layer="svg26" />
  <g
     id="g7366"
     style="fill-opacity:1;fill:url(#linearGradient7434)">
    <path
       d="M 88.891,43.389415 H 66.668 c -3.8281,0 -6.9453,3.1172 -6.9453,6.9453 v 33.332 c 0,3.8281 3.1172,6.9453 6.9453,6.9453 h 22.223 c 3.8281,0 6.9453,-3.1172 6.9453,-6.9453 v -33.332 c 0,-3.8281 -3.1172,-6.9453 -6.9453,-6.9453 z m 4.1641,40.281 c 0,2.2969 -1.8672,4.168 -4.168,4.168 h -22.223 c -2.2969,0 -4.168,-1.8672 -4.168,-4.168 v -33.332 c 0,-2.2969 1.8672,-4.168 4.168,-4.168 h 22.223 c 2.2969,0 4.168,1.8672 4.168,4.168 z"
       id="path2"
       style="fill:url(#linearGradient7434);fill-opacity:1.0" />
    <path
       d="m 80.555,83.671415 h -5.5547 c -0.76953,0 -1.3906,0.62109 -1.3906,1.3906 0,0.76562 0.62109,1.3906 1.3906,1.3906 h 5.5547 c 0.76953,0 1.3906,-0.62109 1.3906,-1.3906 0,-0.76562 -0.62109,-1.3906 -1.3906,-1.3906 z"
       id="path4"
       style="fill:url(#linearGradient7434);fill-opacity:1.0" />
    <path
       d="M 58.332,73.948415 H 11.109 c -2.2969,0 -4.168,-1.8672 -4.168,-4.168 v -37.5 h 37.5 c 0.76953,0 1.3906,-0.62109 1.3906,-1.3906 0,-0.76562 -0.62109,-1.3906 -1.3906,-1.3906 l -37.496,0.0039 v -4.168 c 0,-2.2969 1.8672,-4.168 4.168,-4.168 h 61.109 c 2.2969,0 4.168,1.8672 4.168,4.168 v 15.277 c 0,0.76562 0.62109,1.3906 1.3906,1.3906 0.76951,0 1.3906,-0.62109 1.3906,-1.3906 v -15.277 c 0,-3.8281 -3.1172,-6.9453 -6.9453,-6.9453 h -61.117 c -3.8281,0 -6.9453,3.1172 -6.9453,6.9453 v 44.445 c 0,3.8281 3.1172,6.9453 6.9453,6.9453 h 47.223 c 0.76953,0 1.3906,-0.62109 1.3906,-1.3906 0,-0.76563 -0.62109,-1.3906 -1.3906,-1.3906 z"
       id="path6"
       style="fill:url(#linearGradient7434);fill-opacity:1.0" />
    <path
       d="m 12.5,23.948415 c -0.76953,0 -1.3906,0.62109 -1.3906,1.3906 0,0.76562 0.62109,1.3906 1.3906,1.3906 h 2.7773 c 0.76953,0 1.3906,-0.62109 1.3906,-1.3906 0,-0.76562 -0.62109,-1.3906 -1.3906,-1.3906 z"
       id="path8"
       style="fill:url(#linearGradient7434);fill-opacity:1.0" />
    <path
       d="m 20.832,23.948415 c -0.76953,0 -1.3906,0.62109 -1.3906,1.3906 0,0.76562 0.62109,1.3906 1.3906,1.3906 h 2.7773 c 0.76953,0 1.3906,-0.62109 1.3906,-1.3906 0,-0.76562 -0.62109,-1.3906 -1.3906,-1.3906 z"
       id="path10"
       style="fill:url(#linearGradient7434);fill-opacity:1.0" />
    <path
       d="m 29.168,23.948415 c -0.76953,0 -1.3906,0.62109 -1.3906,1.3906 0,0.76562 0.62109,1.3906 1.3906,1.3906 h 2.7773 c 0.76953,0 1.3906,-0.62109 1.3906,-1.3906 0,-0.76562 -0.62109,-1.3906 -1.3906,-1.3906 z"
       id="path12"
       style="fill:url(#linearGradient7434);fill-opacity:1.0" />
    <path
       d="m 50,29.503415 c -0.76953,0 -1.3906,0.62109 -1.3906,1.3906 0,0.76562 0.62109,1.3906 1.3906,1.3906 h 11.109 c 0.76953,0 1.3906,-0.62109 1.3906,-1.3906 0,-0.76562 -0.62109,-1.3906 -1.3906,-1.3906 z"
       id="path14"
       style="fill:url(#linearGradient7434);fill-opacity:1.0" />
    <path
       d="m 66.668,29.503415 c -0.76953,0 -1.3906,0.62109 -1.3906,1.3906 0,0.76562 0.62109,1.3906 1.3906,1.3906 h 2.7773 c 0.76953,0 1.3906,-0.62109 1.3906,-1.3906 0,-0.76562 -0.62109,-1.3906 -1.3906,-1.3906 z"
       id="path16"
       style="fill:url(#linearGradient7434);fill-opacity:1.0" />
    <path
       d="M 88.891,-1.051585 H 47.223 c -3.8281,0 -6.9453,3.1172 -6.9453,6.9453 v 9.7227 c 0,0.76562 0.62109,1.3906 1.3906,1.3906 0.76951,0 1.3906,-0.62109 1.3906,-1.3906 v -9.7227 c 0,-2.2969 1.8672,-4.168 4.168,-4.168 h 41.668 c 2.2969,0 4.168,1.8672 4.168,4.168 v 25 c 0,2.2969 -1.8672,4.168 -4.168,4.168 h -6.9453 c -0.76953,0 -1.3906,0.62109 -1.3906,1.3906 0,0.76562 0.62109,1.3906 1.3906,1.3906 h 6.9453 c 3.8281,0 6.9453,-3.1172 6.9453,-6.9453 l -0.0078,-25.008 c 0,-3.8281 -3.1172,-6.9453 -6.9453,-6.9453 z"
       id="path18"
       style="fill:url(#linearGradient7434);fill-opacity:1.0" />
    <path
       d="m 90.277,21.171415 v -5.5547 c 0,-0.76563 -0.62109,-1.3906 -1.3906,-1.3906 -0.76951,0 -1.3906,0.62109 -1.3906,1.3906 v 5.5547 c 0,0.76562 0.62109,1.3906 1.3906,1.3906 0.76951,0 1.3906,-0.62109 1.3906,-1.3906 z"
       id="path20"
       style="fill:url(#linearGradient7434);fill-opacity:1.0" />
  </g>
</svg>
